<?xml version="1.0" encoding="UTF-8" standalone="no"?>
<!-- Created with Inkscape (http://www.inkscape.org/) -->

<svg
   xmlns:dc="http://purl.org/dc/elements/1.1/"
   xmlns:cc="http://creativecommons.org/ns#"
   xmlns:rdf="http://www.w3.org/1999/02/22-rdf-syntax-ns#"
   xmlns:svg="http://www.w3.org/2000/svg"
   xmlns="http://www.w3.org/2000/svg"
   xmlns:sodipodi="http://sodipodi.sourceforge.net/DTD/sodipodi-0.dtd"
   xmlns:inkscape="http://www.inkscape.org/namespaces/inkscape"
   width="5"
   height="9"
   viewBox="0 0 5 9"
   version="1.1"
   id="svg8"
   inkscape:version="0.92.2 (5c3e80d, 2017-08-06)"
   sodipodi:docname="font.svg">
  <defs
     id="defs2" />
  <sodipodi:namedview
     id="base"
     pagecolor="#ffffff"
     bordercolor="#666666"
     borderopacity="1.0"
     inkscape:pageopacity="0.0"
     inkscape:pageshadow="2"
     inkscape:zoom="63.356767"
     inkscape:cx="3.4794633"
     inkscape:cy="6.5650084"
     inkscape:document-units="px"
     inkscape:current-layer="layer76"
     showgrid="false"
     units="px"
     inkscape:pagecheckerboard="true"
     inkscape:window-width="1818"
     inkscape:window-height="1408"
     inkscape:window-x="-7"
     inkscape:window-y="0"
     inkscape:window-maximized="0"
     showguides="false" />
  <metadata
     id="metadata5">
    <rdf:RDF>
      <cc:Work
         rdf:about="">
        <dc:format>image/svg+xml</dc:format>
        <dc:type
           rdf:resource="http://purl.org/dc/dcmitype/StillImage" />
        <dc:title></dc:title>
      </cc:Work>
    </rdf:RDF>
  </metadata>
  <g
     inkscape:groupmode="layer"
     id="layer2"
     inkscape:label="A"
     style="display:none"
     transform="translate(0,-23)">
    <path
       style="fill:#fffffb;fill-opacity:1;stroke:none;stroke-width:1px;stroke-linecap:butt;stroke-linejoin:miter;stroke-opacity:1"
       d="m 3.2068172,22.868897 -1.3261716,0.126953 -1.9882813,8.996094 1.1347657,-0.03125 1.0117182,-3.914063 1.009766,0.0625 0.947266,3.851563 0.914062,0.0625 z m -0.648437,1.941406 0.300781,2.083984 h -0.615234 z"
       id="path828"
       inkscape:connector-curvature="0" />
  </g>
  <g
     inkscape:groupmode="layer"
     id="layer4"
     inkscape:label="B"
     style="display:none"
     transform="translate(0,-23)">
    <path
       style="fill:#ffffff;fill-opacity:1;stroke:none;stroke-width:1px;stroke-linecap:butt;stroke-linejoin:miter;stroke-opacity:1"
       d="m -0.1076357,22.962647 0.1894531,9.15625 3.0292968,-0.126953 1.988281,-1.642579 -0.345703,-1.957031 -1.263672,-1.009766 1.167969,-0.726562 0.474609,-1.798828 -1.453124,-1.609375 z m 2.9042969,1.390625 1.072266,0.978515 -1.136719,1.357422 H 1.2165831 v -2.242187 z m -1.6739272,3.976195 1.9883802,-0.03088 0.726563,1.609375 -0.978516,0.884766 L 1.02713,30.665775 Z"
       id="path834"
       inkscape:connector-curvature="0"
       sodipodi:nodetypes="cccccccccccccccccccccc" />
  </g>
  <g
     inkscape:groupmode="layer"
     id="layer5"
     inkscape:label="C"
     style="display:none"
     transform="translate(0,-23)">
    <path
       style="fill:#fffff9;fill-opacity:1;stroke:none;stroke-width:1px;stroke-linecap:butt;stroke-linejoin:miter;stroke-opacity:1"
       d="m -0.1207495,27.236363 0.5803572,-2.388393 2.0089285,-1.919643 2.96875,0.535715 -0.178571,1.116071 -2.34375,-0.625 -1.5625004,1.450893 -0.4241071,2.008929 0.8035714,2.522321 1.6741071,1.138393 2.165179,-0.647322 0.245535,0.848215 -2.745535,0.78125 -2.0982147,-1.629465 z"
       id="path844"
       inkscape:connector-curvature="0" />
  </g>
  <g
     inkscape:groupmode="layer"
     id="layer6"
     inkscape:label="D"
     style="display:none"
     transform="translate(0,-23)">
    <path
       style="fill:#fffff9;fill-opacity:1;stroke:none;stroke-width:1px;stroke-linecap:butt;stroke-linejoin:miter;stroke-opacity:1"
       d="m 1.77713,22.92749 -1.8085938,0.04492 0.021484,9.017578 2.746094,0.02344 1.697266,-0.916016 0.625,-3.013672 -0.804688,-3.570312 z m -0.8710938,1.09375 0.7597656,0.04492 1.6289064,1.00586 0.625,2.878906 -0.246094,2.232422 -1.09375,0.646484 -1.4960936,0.06641 z"
       id="path847"
       inkscape:connector-curvature="0" />
  </g>
  <g
     inkscape:groupmode="layer"
     id="layer7"
     inkscape:label="E"
     style="display:none"
     transform="translate(0,-23)">
    <path
       style="fill:#fffff9;fill-opacity:1;stroke:none"
       d="m -0.0136952,22.963584 -0.078918,9.012455 5.1612484,0.110485 -0.0947,-1.152205 -3.9774757,-0.01578 0.031567,-2.95154 2.0360887,0.07892 v -1.120643 l -2.0834396,0.01578 0.1104854,-2.904189 3.9616922,-0.01578 -0.110485,-1.089071 z"
       id="path853"
       inkscape:connector-curvature="0" />
  </g>
  <g
     inkscape:groupmode="layer"
     id="layer8"
     inkscape:label="F"
     style="display:none"
     transform="translate(0,-23)">
    <path
       style="fill:#fffff9;fill-opacity:1;stroke:none"
       d="m -0.0452625,32.007606 v -9.091373 l 5.1138977,0.03157 -0.03157,1.136421 -4.0406099,-0.04735 0.047351,3.014674 1.9887379,-0.0947 0.03157,1.104854 -2.0203049,-0.06313 -0.015784,4.103745 z"
       id="path856"
       inkscape:connector-curvature="0" />
  </g>
  <g
     inkscape:groupmode="layer"
     id="layer9"
     inkscape:label="G"
     style="display:none"
     transform="translate(0,-23)">
    <path
       style="fill:#fffff9;fill-opacity:1;stroke:none"
       d="m 3.0009792,27.019978 -0.01578,0.994369 0.994369,-0.03157 0.07892,1.673065 -0.678696,1.231123 -1.231124,-4e-6 -1.0417194,-1.909819 -0.2209706,-3.267212 0.7418308,-1.325826 1.5467962,-0.473509 1.104854,0.994369 0.852316,-0.820749 -1.325825,-1.152205 -2.0834394,0.126269 -1.3573925,1.246907 -0.5682108,1.467878 0.1894036,2.983107 0.6313453,1.846685 1.2469071,1.341609 1.6888487,0.03157 1.38896,-1.673065 0.03157,-2.414896 0.01578,-0.931234 z"
       id="path859"
       inkscape:connector-curvature="0"
       sodipodi:nodetypes="cccccccccccccccccccccccc" />
  </g>
  <g
     inkscape:groupmode="layer"
     id="layer10"
     inkscape:label="H"
     style="display:none"
     transform="translate(0,-23)">
    <path
       style="fill:#fffff9;fill-opacity:1;stroke:none"
       d="m -0.108397,22.963584 1.0732871,0.03157 0.047351,3.993259 h 2.9831071 v -4.024827 l 1.010152,0.01578 -0.01578,9.028238 -1.010152,-0.01578 v -4.024828 l -2.9988904,0.03157 0.063135,4.056394 -1.0575034,-0.03157 z"
       id="path862"
       inkscape:connector-curvature="0" />
  </g>
  <g
     inkscape:groupmode="layer"
     id="layer11"
     inkscape:label="I"
     style="display:none"
     transform="translate(0,-23)">
    <path
       style="fill:#fffff9;fill-opacity:1;stroke:none"
       d="m -0.0926134,22.979368 h 1.120638 v 9.059806 l -1.0259362,-0.03157 z"
       id="path865"
       inkscape:connector-curvature="0" />
  </g>
  <g
     inkscape:groupmode="layer"
     id="layer12"
     inkscape:label="J"
     style="display:none"
     transform="translate(0,-23)">
    <path
       style="fill:#fffff9;fill-opacity:1;stroke:none"
       d="m -0.0294788,22.932017 5.066546,0.06313 -0.03157,1.073287 -0.994369,-0.03157 0.04735,5.966214 -0.741831,1.420527 -1.6730649,0.678696 -1.420527,-0.631345 -0.2841054,-1.515229 1.0259362,-0.0947 0.1104854,0.69448 0.7418308,0.536644 1.0259359,-0.457726 0.189404,-0.931234 -0.06313,-5.650541 -2.99889,0.01578 z"
       id="path868"
       inkscape:connector-curvature="0" />
  </g>
  <g
     inkscape:groupmode="layer"
     id="layer13"
     inkscape:label="K"
     style="display:none"
     transform="translate(0,-23)">
    <path
       style="fill:#fffff9;fill-opacity:1;stroke:none"
       d="m -0.0136952,22.963584 -0.047351,9.12294 1.0732871,-0.06313 -0.015784,-4.009043 2.9831073,4.009043 1.246907,-0.01578 -3.5671017,-4.482552 3.9932597,-4.466768 -1.38896,-0.06313 -3.3145632,3.914341 0.047351,-3.930125 z"
       id="path871"
       inkscape:connector-curvature="0" />
  </g>
  <g
     inkscape:groupmode="layer"
     id="layer14"
     inkscape:label="L"
     style="display:none"
     transform="translate(0,-23)">
    <path
       style="fill:#fffff9;fill-opacity:1;stroke:none"
       d="m -0.0926134,22.995152 0.031567,9.059805 5.1612486,0.01578 V 30.965883 L 0.996457,30.981663 0.980673,22.963577 Z"
       id="path874"
       inkscape:connector-curvature="0" />
  </g>
  <g
     inkscape:groupmode="layer"
     id="layer15"
     inkscape:label="M"
     style="display:none"
     transform="translate(0,-23)">
    <path
       style="fill:#fffff9;fill-opacity:1;stroke:none"
       d="m -0.0452625,32.02339 0.031567,-9.059806 0.8996671,0.01578 1.6099306,2.020305 1.578364,-2.004521 h 0.962801 l -0.01578,9.059805 -1.057504,0.01578 0.07892,-7.733981 -1.625714,1.751984 -1.5310126,-1.799334 0.1578363,7.765547 z"
       id="path877"
       inkscape:connector-curvature="0" />
  </g>
  <g
     inkscape:groupmode="layer"
     id="layer16"
     inkscape:label="N"
     style="display:none"
     transform="translate(0,-23)">
    <path
       style="fill:#fffff9;fill-opacity:1;stroke:none"
       d="m -0.0294788,32.007606 -0.015784,-9.107156 1.0890707,0.03157 2.9831063,7.276255 -0.07892,-7.292039 1.08907,0.01578 v 9.107157 l -1.373176,-0.03157 -2.8094869,-6.676477 0.1420527,6.739612 z"
       id="path880"
       inkscape:connector-curvature="0"
       sodipodi:nodetypes="ccccccccccc" />
  </g>
  <g
     inkscape:groupmode="layer"
     id="layer17"
     inkscape:label="O"
     style="display:none"
     transform="translate(0,-23)">
    <path
       style="fill:#fffff9;fill-opacity:1;stroke:none"
       d="m 2.6853332,22.915772 -1.8476564,0.726562 -0.8671875,1.294922 -0.0625,5.396484 0.5996094,1.201172 2.0507815,0.583985 1.673828,-0.521485 0.773437,-1.089844 0.07813,-5.224609 -0.568359,-1.482422 z m -0.7586062,1.151976 1.1528202,-0.06166 0.885083,1.00929 0.07813,5.082556 -1.0255,0.993775 L 1.6753593,30.981018 1.0447081,30.081202 0.949005,25.031006 Z"
       id="path883"
       inkscape:connector-curvature="0"
       sodipodi:nodetypes="cccccccccccccccccccc" />
  </g>
  <g
     inkscape:groupmode="layer"
     id="layer18"
     inkscape:label="P"
     style="display:none"
     transform="translate(0,-23)">
    <path
       style="fill:#fffff9;fill-opacity:1;stroke:none"
       d="m -0.0607607,22.931397 0.015625,9.123047 1.0410157,0.01562 0.03125,-4.08789 1.3261722,0.03125 1.863281,-0.646484 0.835937,-1.5625 -0.441406,-1.845704 -1.972656,-1.011718 z m 2.6992189,0.947265 1.152344,0.490235 0.363281,1.167968 -0.458985,0.931641 -1.419921,0.550781 L 0.99588,27.034917 0.980255,23.97437 Z"
       id="path889"
       inkscape:connector-curvature="0" />
  </g>
  <g
     inkscape:groupmode="layer"
     id="layer19"
     inkscape:label="Q"
     style="display:none"
     transform="translate(0,-23)">
    <path
       style="fill:#fffff9;fill-opacity:1;stroke:none"
       d="m 2.4021302,23.0271 -1.5957034,0.693359 -0.8984375,1.421875 0.2363281,4.845703 1.3417969,1.861328 1.4199219,0.142579 0.490234,1.515624 1.009766,0.820313 0.804688,-0.804687 -0.916016,-0.583985 -0.267578,-0.962891 0.978515,-1.720703 0.04687,-5.351562 -0.773437,-1.373047 z m 0.125,0.851562 1.121094,0.458985 0.425781,0.755859 0.01563,4.925781 -0.59961,1.087891 L 1.8806456,31.013428 1.0759581,29.892334 0.87088,25.251709 1.3435362,24.288818 Z"
       id="path895"
       inkscape:connector-curvature="0" />
  </g>
  <g
     inkscape:groupmode="layer"
     id="layer20"
     inkscape:label="R"
     style="display:none"
     transform="translate(0,-23)">
    <path
       style="fill:#fffff9;fill-opacity:1;stroke:none"
       d="m 2.3845522,22.915772 -2.4609379,0.03125 0.046875,9.044922 1.0253907,0.01562 0.064453,-3.99414 0.8203125,0.04883 2.0664067,4.023438 1.105468,-0.03125 -2.003906,-3.992188 1.277344,-1.042969 0.726562,-1.736328 -0.742187,-1.6875 z m -0.04687,0.947265 1.214843,0.363281 0.521485,1.056641 -0.457031,0.996094 -0.947266,0.773437 -1.6425782,-0.06445 0.033203,-2.951172 z"
       id="path901"
       inkscape:connector-curvature="0" />
  </g>
  <g
     inkscape:groupmode="layer"
     id="layer21"
     inkscape:label="S"
     style="display:none"
     transform="translate(0,-23)">
    <path
       style="fill:#fffff9;fill-opacity:1;stroke:none"
       d="m 2.4908572,31.968506 1.763393,-0.602679 0.758929,-1.875 -0.78125,-1.540178 -1.830357,-0.870536 -1.3616074,-0.736607 -0.089286,-1.25 0.9375,-1.071429 1.2723214,-0.223214 1.5625,0.669643 0.290179,-1.09375 -1.696429,-0.602679 -1.875,0.357143 -1.6071428,1.607143 0.044643,1.830358 0.6696429,0.848213 2.9687499,1.607143 0.11161,1.339286 -1.6964293,0.669643 -1.5848215,-0.357143 -0.3348214,0.915179 z"
       id="path907"
       inkscape:connector-curvature="0"
       sodipodi:nodetypes="cccccccccccccccccccccc" />
  </g>
  <g
     inkscape:groupmode="layer"
     id="layer22"
     inkscape:label="T"
     style="display:none"
     transform="translate(0,-23)">
    <path
       style="fill:#fffff9;fill-opacity:1;stroke:none"
       d="m -0.0768298,22.90045 5.145465,0.06313 0.03157,1.104855 -2.146574,-0.03157 0.03157,7.986519 H 1.9434753 l -0.063135,-7.986519 -1.9887378,-0.03157 z"
       id="path910"
       inkscape:connector-curvature="0" />
  </g>
  <g
     inkscape:groupmode="layer"
     id="layer23"
     inkscape:label="U"
     style="display:none"
     transform="translate(0,-23)">
    <path
       style="fill:#fffff9;fill-opacity:1;stroke:none"
       d="m -0.0091423,22.97297 -0.044643,6.875 0.7589286,1.651786 1.7410719,0.513393 1.763392,-0.46875 0.825893,-1.517857 -0.04464,-7.098215 -1.09375,0.08929 0.111608,6.71875 -0.513393,0.9375 -1.049107,0.334822 -1.0044648,-0.3125 -0.5133928,-0.78125 0.022321,-6.941965 z"
       id="path913"
       inkscape:connector-curvature="0"
       sodipodi:nodetypes="ccccccccccccccc" />
  </g>
  <g
     inkscape:groupmode="layer"
     id="layer24"
     inkscape:label="V"
     style="display:none"
     transform="translate(0,-23)">
    <path
       style="fill:#fffff9;fill-opacity:1;stroke:none"
       d="m -0.0314638,22.995292 1.9866072,9.040178 1.0267858,0.02232 2.075893,-9.107143 -1.138393,0.02232 -1.383929,7.03125 -1.6071425,-7.053571 z"
       id="path916"
       inkscape:connector-curvature="0"
       sodipodi:nodetypes="cccccccc" />
  </g>
  <g
     inkscape:groupmode="layer"
     id="layer25"
     inkscape:label="W"
     style="display:none"
     transform="translate(0,-23)">
    <path
       style="fill:#fffff9;fill-opacity:1;stroke:none"
       d="m -1.1028924,23.017613 1.0044643,8.995536 1.0491072,-0.04464 1.5625001,-1.986607 1.383928,1.875 1.026786,0.15625 1.049107,-9.0625 h -1.09375 l -0.825893,7.633925 -1.540178,-1.741071 -1.607143,1.651786 -0.9151785,-7.477679 z"
       id="path919"
       inkscape:connector-curvature="0"
       sodipodi:nodetypes="ccccccccccccc" />
  </g>
  <g
     inkscape:groupmode="layer"
     id="layer26"
     inkscape:label="X"
     style="display:none"
     transform="translate(0,-23)">
    <path
       style="fill:#fffff9;fill-opacity:1;stroke:none"
       d="m 2.5432532,26.404416 1.499445,-3.409264 0.978586,0.04735 -2.036089,4.545687 2.036089,4.435201 -1.104855,-0.01578 -1.43631,-3.472399 -1.5310128,3.488183 h -1.0101525 l 2.0360887,-4.482552 -1.9729542,-4.529903 0.947018,-0.01578 z"
       id="path922"
       inkscape:connector-curvature="0"
       sodipodi:nodetypes="ccccccccccccc" />
  </g>
  <g
     inkscape:groupmode="layer"
     id="layer27"
     inkscape:label="Y"
     style="display:none"
     transform="translate(0,-23)">
    <path
       style="fill:#fffff9;fill-opacity:1;stroke:none"
       d="m -0.0452625,23.010935 2.0518727,4.90871 -0.031568,4.056394 1.010153,0.01578 0.01578,-4.009043 2.020305,-4.971845 -1.010153,-0.04735 -1.499445,3.851207 -1.5467965,-3.788072 z"
       id="path925"
       inkscape:connector-curvature="0"
       sodipodi:nodetypes="cccccccccc" />
  </g>
  <g
     inkscape:groupmode="layer"
     id="layer28"
     inkscape:label="Z"
     style="display:none"
     transform="translate(0,-23)">
    <path
       style="fill:#fffff9;fill-opacity:1;stroke:none"
       d="M 5.0212842,32.02339 0.0020884,31.97604 3.5376232,24.005305 h -3.5828857 l 0.031567,-1.025936 5.0191957,0.03157 -3.3776979,8.002302 3.4566159,-0.04735 z"
       id="path928"
       inkscape:connector-curvature="0"
       sodipodi:nodetypes="ccccccccc" />
  </g>
  <g
     inkscape:groupmode="layer"
     id="layer29"
     inkscape:label="a"
     style="display:none"
     transform="translate(0,-23)">
    <path
       style="fill:#fffff9;fill-opacity:1;stroke:none"
       d="m 3.9958802,26.972412 v 0.646485 l -1.53125,-0.503907 -1.7675784,0.898438 -0.7890625,1.658203 0.9941407,1.767578 1.5468752,0.599609 1.546875,-0.01562 1.009765,-0.03125 0.07813,-5.003907 z m -1.484375,1.105469 1.452966,0.457804 -0.01742,2.540828 -1.451171,0.110743 -0.9941409,-0.537109 -0.663428,-0.994776 0.663428,-1.089209 z"
       id="path931"
       inkscape:connector-curvature="0"
       sodipodi:nodetypes="ccccccccccccccccccc" />
  </g>
  <g
     inkscape:groupmode="layer"
     id="layer30"
     inkscape:label="b"
     style="display:none"
     transform="translate(0,-23)">
    <path
       style="fill:#fffff9;fill-opacity:1;stroke:none"
       d="m -0.019745,22.972412 -0.033203,6.595703 0.7128906,1.841797 1.9648436,0.636719 1.763672,-0.658203 0.613281,-1.931641 -0.9375,-1.685547 -1.394531,-0.769531 -1.6972656,0.447266 0.033203,-4.476563 z m 2.6113282,5.06836 0.826172,0.40039 0.580078,1.105469 -0.324219,1.003906 -1.048828,0.435547 -1.2832031,-0.568359 -0.4023438,-0.871094 0.033203,-1.115234 z"
       id="path937"
       inkscape:connector-curvature="0" />
  </g>
  <g
     inkscape:groupmode="layer"
     id="layer31"
     inkscape:label="c"
     style="display:none"
     transform="translate(0,-23)">
    <path
       style="fill:#fffff9;fill-opacity:1;stroke:none"
       d="m -0.0294788,29.466441 0.7576144,-1.704632 1.7835506,-0.773398 1.783551,0.52086 -0.410375,0.899667 -1.373176,-0.441942 -1.0575035,0.457726 -0.473509,1.08907 0.3314563,1.025936 1.1364212,0.505077 1.357393,-0.457726 0.489293,0.899667 -1.783551,0.536644 -1.9887379,-0.615562 z"
       id="path943"
       inkscape:connector-curvature="0" />
  </g>
  <g
     inkscape:groupmode="layer"
     id="layer32"
     inkscape:label="d"
     style="display:none"
     transform="translate(0,-23)">
    <path
       style="fill:#fffff9;fill-opacity:1;stroke:none"
       d="m 3.9158022,22.962647 0.04883,4.482639 -1.4375,-0.472874 -1.8934211,0.663855 -0.7100948,1.877161 0.5996094,2.005859 1.9570315,0.519531 1.957031,-0.599609 0.568359,-1.277344 -0.03125,-7.199218 z m -1.404297,4.988281 c 0.512621,0.01192 1.46875,0.457244 1.46875,0.457244 l -0.0332,1.390407 -0.345704,0.882813 -1.248046,0.332031 L 1.1697081,30.603272 0.96463,29.529053 1.3591612,28.251709 c 0,0 0.755467,-0.310007 1.152344,-0.300781 z"
       id="path946"
       inkscape:connector-curvature="0"
       sodipodi:nodetypes="cccccccccccccccccccc" />
  </g>
  <g
     inkscape:groupmode="layer"
     id="layer33"
     inkscape:label="e"
     style="display:none"
     transform="translate(0,-23)">
    <path
       style="fill:#fffff9;fill-opacity:1;stroke:none"
       d="m 2.4646302,26.972412 -1.7851565,0.66211 -0.6643415,1.217075 -0.1227679,1.120815 0.8205915,1.520089 1.8942524,0.483817 1.415458,-0.502232 -0.04241,-0.476283 -1.390625,0.03125 -1.2138922,-0.253381 -0.442358,-0.883338 3.8284122,-0.0067 0.275103,-0.84483 -0.757812,-1.357422 z m -0.09438,0.868298 1.172468,0.404899 0.539452,0.779538 -3.0887964,-0.05106 0.3657924,-0.771205 z"
       id="path952"
       inkscape:connector-curvature="0"
       sodipodi:nodetypes="ccccccccccccccccccccc" />
  </g>
  <g
     inkscape:groupmode="layer"
     id="layer34"
     inkscape:label="f"
     style="display:none"
     transform="translate(0,-23)">
    <path
       style="fill:#fffff9;fill-opacity:1;stroke:none"
       d="m -0.0136952,31.976039 -0.047351,-6.739611 0.6786962,-1.688849 1.4520942,-0.726047 1.04172,0.236754 -0.126269,0.947018 -0.8681,-0.173619 -0.8365326,0.363023 -0.299889,1.025936 0.015784,1.862469 1.9887376,-0.04735 v 0.962801 l -1.9571703,0.03157 -0.031567,3.977475 z"
       id="path958"
       inkscape:connector-curvature="0"
       sodipodi:nodetypes="ccccccccccccccc" />
  </g>
  <g
     inkscape:groupmode="layer"
     id="layer35"
     inkscape:label="g"
     style="display:none"
     transform="translate(0,-23)">
    <path
       style="fill:#fffff9;fill-opacity:1;stroke:none"
       d="m 2.4490052,26.956787 -1.6894534,0.695313 -0.8046875,1.876953 0.6953125,1.878906 1.7988284,0.552735 1.53125,-0.679688 0.01563,2.130859 -0.332032,1.232422 -1.199218,0.394531 -1.230474,-0.378906 -0.3964844,-1.011718 -1.0878906,0.474609 0.7578125,1.357422 1.8769535,0.488281 2.068359,-0.550781 0.505859,-1.958985 -0.01563,-6.423828 -0.90039,-0.0625 -0.03125,0.251953 z m 0,0.804688 1.451172,0.300781 0.04687,2.271484 -1.451172,0.742188 -1.1360845,-0.39353 -0.506018,-1.215686 0.6010866,-1.215003 z"
       id="path961"
       inkscape:connector-curvature="0"
       sodipodi:nodetypes="cccccccccccccccccccccccccccc" />
  </g>
  <g
     inkscape:groupmode="layer"
     id="layer36"
     inkscape:label="h"
     style="display:none"
     transform="translate(0,-23)">
    <path
       style="fill:#fffff9;fill-opacity:1;stroke:none"
       d="m -0.0984281,22.906006 0.066964,9.107143 0.9821429,0.02232 -0.022321,-3.325893 1.3839284,-0.78125 1.361607,0.46875 0.446429,1.696429 -0.133929,1.919643 1.026786,-0.08929 0.02232,-2.075893 -0.513393,-2.098214 -2.254464,-0.825893 -1.3392854,0.602679 0.089286,-4.642857 z"
       id="path967"
       inkscape:connector-curvature="0"
       sodipodi:nodetypes="ccccccccccccccc" />
  </g>
  <g
     inkscape:groupmode="layer"
     id="layer37"
     inkscape:label="i"
     style="display:none"
     transform="translate(0,-23)">
    <path
       style="fill:#fffff9;fill-opacity:1;stroke:none"
       d="m -0.0537852,27.013149 1.0044643,-0.02232 0.066964,5 -1.0714286,0.04464 z"
       id="path970"
       inkscape:connector-curvature="0" />
    <path
       style="fill:#fffff9;fill-opacity:1;stroke:none"
       d="m -0.0537852,26.008685 1.0491071,-0.02232 -0.022321,-1.026786 -1.0714286,0.02232 z"
       id="path972"
       inkscape:connector-curvature="0" />
  </g>
  <g
     inkscape:groupmode="layer"
     id="layer38"
     inkscape:label="j"
     style="display:none"
     transform="translate(0,-23)">
    <path
       style="fill:#fffff9;fill-opacity:1;stroke:none"
       d="m -0.0314638,26.031006 h 1.0267857 l 0.044643,-1.049107 h -1.1160715 z"
       id="path975"
       inkscape:connector-curvature="0" />
    <path
       style="fill:#fffff9;fill-opacity:1;stroke:none"
       d="m 0.0131791,26.990827 1.0044643,-0.02232 -0.022322,5 -0.5133928,1.674107 -1.40625,0.424107 L -2.152,33.57565 l 0.5133929,-0.9375 0.6473214,0.401786 0.7366071,-0.200893 0.2455358,-0.691965 z"
       id="path977"
       inkscape:connector-curvature="0" />
  </g>
  <g
     inkscape:groupmode="layer"
     id="layer39"
     inkscape:label="k"
     style="display:none"
     transform="translate(0,-23)">
    <path
       style="fill:#fffff9;fill-opacity:1;stroke:none"
       d="m -0.0537852,23.017613 0.044643,9.0625 0.9598214,-0.02232 0.044643,-2.410714 1.986607,2.276785 1.138393,0.06696 -2.5223214,-3.080357 2.4107134,-2.991071 -0.959821,0.06696 -2.0312496,2.232143 6e-7,-5.267857 z"
       id="path980"
       inkscape:connector-curvature="0"
       sodipodi:nodetypes="cccccccccccc" />
  </g>
  <g
     inkscape:groupmode="layer"
     id="layer40"
     inkscape:label="l"
     style="display:none"
     transform="translate(0,-23)">
    <path
       style="fill:#fffff9;fill-opacity:1;stroke:none"
       d="m -0.0091423,22.97297 -0.044643,7.120536 0.5636161,1.356027 1.4732143,0.558036 L 3.2832681,31.40489 2.7475532,30.729667 1.9607237,31.036586 1.3022416,30.807792 1.0064826,30.104666 0.9953219,22.995292 Z"
       id="path983"
       inkscape:connector-curvature="0"
       sodipodi:nodetypes="ccccccccccc" />
  </g>
  <g
     inkscape:groupmode="layer"
     id="layer41"
     inkscape:label="m"
     style="display:none"
     transform="translate(0,-23)">
    <path
       style="display:inline;opacity:0.4662162;fill:#fffff9;fill-opacity:1;stroke:none"
       d="m 0.0020889,31.889223 -0.01578,-4.05639 0.489293,-0.93124 1.9571703,1.57837 1.988738,-1.56259 0.583994,0.94702 -0.01578,4.11953 -0.978585,0.0158 0.01578,-3.70915 -1.594147,1.12063 -1.4678783,-1.21533 0.07892,3.77228 z"
       id="path985"
       inkscape:connector-curvature="0" />
  </g>
  <g
     inkscape:groupmode="layer"
     id="layer42"
     inkscape:label="n"
     style="display:none"
     transform="translate(0,-23)">
    <path
       style="fill:#fffff9;fill-opacity:1;stroke:none"
       d="m -0.0314638,32.03547 v -5.066964 h 2.522321 l 1.830358,0.803571 0.691964,2.120536 -0.02232,2.165179 -0.982142,-0.08929 0.06696,-2.209821 -0.513393,-1.272322 -1.160714,-0.535714 -1.4062503,0.04464 -0.044643,4.084821 z"
       id="path1004"
       inkscape:connector-curvature="0" />
  </g>
  <g
     inkscape:groupmode="layer"
     id="layer43"
     inkscape:label="o"
     style="display:none"
     transform="translate(0,-23)">
    <path
       style="fill:#fffff9;fill-opacity:1;stroke:none"
       d="m 2.5427552,27.019287 -1.8769534,0.648438 -0.6796875,1.861328 0.6152344,1.832031 1.8789065,0.677734 1.925781,-0.646484 0.599609,-1.925781 -0.695312,-1.798828 z m -0.07813,0.931641 1.105468,0.425781 0.457032,1.201172 -0.50586,1.167969 -1.072265,0.314453 -1.1051467,-0.456714 -0.3951658,-1.073535 0.3948485,-1.16897 z"
       id="path1007"
       inkscape:connector-curvature="0"
       sodipodi:nodetypes="cccccccccccccccccc" />
  </g>
  <g
     inkscape:groupmode="layer"
     id="layer44"
     inkscape:label="p"
     style="display:none"
     transform="translate(0,-23)">
    <path
       style="fill:#fffff9;fill-opacity:1;stroke:none"
       d="m 0.0134581,27.001709 -0.023437,8.013672 0.9941406,-0.01172 -0.033203,-3.482422 1.4960945,0.492188 1.96289,-0.580078 0.580078,-1.919922 -0.746093,-1.785156 -1.664063,-0.703125 z m 1.0039062,0.994141 1.5175779,0.0098 0.960938,0.458985 0.46875,1.103515 -0.402344,1.083985 -1.037109,0.40039 -1.5195316,-0.667968 z"
       id="path1013"
       inkscape:connector-curvature="0" />
  </g>
  <g
     inkscape:groupmode="layer"
     id="layer45"
     inkscape:label="q"
     style="display:none"
     transform="translate(0,-23)">
    <path
       style="fill:#fffff9;fill-opacity:1;stroke:none"
       d="m 2.4490052,26.988037 -1.6738284,0.757813 -0.8359375,1.783203 0.7578125,1.767578 1.7207034,0.695313 1.546875,-0.710938 -0.04883,3.757812 h 2.195312 l -1.136717,-0.664062 -0.03125,-7.371094 z m -0.126953,0.947266 1.642578,0.07813 0.01563,2.242187 -1.626953,0.789063 L 1.4060362,30.712647 0.96463,29.560303 1.4548643,28.376709 Z"
       id="path1019"
       inkscape:connector-curvature="0" />
  </g>
  <g
     inkscape:groupmode="layer"
     id="layer46"
     inkscape:label="r"
     style="display:none"
     transform="translate(0,-23)">
    <path
       style="fill:#fffff9;fill-opacity:1;stroke:none"
       d="m -0.108397,32.086524 1.1048543,-0.06313 0.00317,-3.877358 1.3857869,-0.447358 1.609931,0.568211 v -1.136425 l -1.578361,-0.505077 -1.4852477,0.493587 -1.0178121,-0.287935 z"
       id="path1025"
       inkscape:connector-curvature="0"
       sodipodi:nodetypes="cccccccccc" />
  </g>
  <g
     inkscape:groupmode="layer"
     id="layer47"
     inkscape:label="s"
     style="display:none"
     transform="translate(0,-23)">
    <path
       style="fill:#fffff9;fill-opacity:1;stroke:none"
       d="m 5.0686352,30.523945 -0.662913,-1.04172 -3.3303467,-0.962802 1.6257147,-0.74183 2.272843,0.142052 0.07892,-0.947018 -2.683218,-0.205187 -1.8782521,0.820749 -0.6629126,1.025936 1.2784743,1.057504 2.8568384,0.741831 -1.594148,0.647128 -1.8151176,-0.378807 -0.299889,0.899667 2.2886266,0.552427 2.193925,-0.820749 z"
       id="path1028"
       inkscape:connector-curvature="0"
       sodipodi:nodetypes="ccccccccccccccccc" />
  </g>
  <g
     inkscape:groupmode="layer"
     id="layer48"
     inkscape:label="t"
     style="display:none"
     transform="translate(0,-23)">
    <path
       style="fill:#fffff9;fill-opacity:1;stroke:none"
       d="m -0.0294788,23.010935 v 7.102635 l 0.7418307,1.21534 1.6099303,0.741831 1.704633,-0.01578 v -1.073287 l -1.751984,0.03157 -0.9943685,-0.426158 -0.2841054,-1.152205 -0.015784,-1.436311 3.0304579,0.01578 -0.01578,-1.04172 -2.9831076,0.03157 v -3.993259 z"
       id="path1031"
       inkscape:connector-curvature="0" />
  </g>
  <g
     inkscape:groupmode="layer"
     id="layer49"
     inkscape:label="u"
     style="display:none"
     transform="translate(0,-23)">
    <path
       style="fill:#fffff9;fill-opacity:1;stroke:none"
       d="m -0.0610461,26.956844 0.015784,2.257059 0.8365326,2.036089 1.7993337,0.804965 1.7362,-0.69448 0.710263,-2.193925 v -2.209708 l -1.183772,0.01578 0.0947,2.241276 -0.299889,1.420527 -1.073288,0.331457 L 1.3910466,30.539725 0.9806721,29.2139 1.0280231,26.988408 Z"
       id="path1034"
       inkscape:connector-curvature="0" />
  </g>
  <g
     inkscape:groupmode="layer"
     id="layer50"
     inkscape:label="v"
     style="display:none"
     transform="translate(0,-23)">
    <path
       style="fill:#fffff9;fill-opacity:1;stroke:none"
       d="m 1.9908263,32.007606 -2.0360888,-5.066546 1.0259362,0.03157 1.4994455,3.598669 1.531012,-3.582885 1.04172,-0.04735 -2.067656,5.066546 z"
       id="path1037"
       inkscape:connector-curvature="0" />
  </g>
  <g
     inkscape:groupmode="layer"
     id="layer51"
     inkscape:label="w"
     style="display:none"
     transform="translate(0,-23)">
    <path
       style="fill:#fffff9;fill-opacity:1;stroke:none"
       d="m 0.4598138,27.019978 -0.4419417,1.941387 0.5839944,2.414896 0.9628016,0.631345 0.9470181,-0.757614 0.883883,0.741831 1.21534,-0.441942 0.394591,-2.478031 -0.568211,-2.099223 -0.994369,-0.01578 0.489293,2.193925 -0.04735,1.60993 -0.489293,0.0947 -0.994368,-0.804965 -0.6313458,0.820749 -0.4892926,-0.0947 -0.3156727,-1.625714 0.473509,-2.146575 z"
       id="path1040"
       inkscape:connector-curvature="0"
       sodipodi:nodetypes="ccccccccccccccccccc" />
  </g>
  <g
     inkscape:groupmode="layer"
     id="layer52"
     inkscape:label="x"
     style="display:none"
     transform="translate(0,-23)">
    <path
       style="fill:#fffff9;fill-opacity:1;stroke:none"
       d="m -0.0768297,31.991823 2.1307909,-2.462247 -2.0676564,-2.572732 h 0.9628016 l 1.5625798,1.720416 1.546796,-1.641498 1.025936,-0.01578 -2.115007,2.478031 2.067656,2.556948 -1.010152,-0.04735 -1.483662,-1.641498 -1.5941468,1.641498 z"
       id="path1043"
       inkscape:connector-curvature="0" />
  </g>
  <g
     inkscape:groupmode="layer"
     id="layer53"
     inkscape:label="y"
     style="display:none"
     transform="translate(0,-23)">
    <path
       style="fill:#fffff9;fill-opacity:1;stroke:none"
       d="M 2.4643352,35.02228 1.4383991,34.548771 0.8228374,35.653626 2.5116862,36.064 l 1.783551,-0.631345 0.726047,-1.894036 -0.01578,-6.613343 -1.073287,0.04735 0.04735,3.440832 L 2.4012032,31.02902 1.2332118,30.697565 0.9806737,29.561143 0.9491064,27.019978 h -1.0259361 l 0.063135,2.635867 0.5682108,1.704632 1.9256041,0.647129 1.483661,-0.678696 v 2.320194 l -0.410374,0.978586 z"
       id="path1046"
       inkscape:connector-curvature="0"
       sodipodi:nodetypes="ccccccccccccccccccccc" />
  </g>
  <g
     inkscape:groupmode="layer"
     id="layer54"
     inkscape:label="z"
     style="display:none"
     transform="translate(0,-23)">
    <path
       style="fill:#fffff9;fill-opacity:1;stroke:none"
       d="m 5.0528512,32.039174 -5.08233,-0.04735 3.014674,-4.024827 -3.0620249,0.04735 0.047351,-1.104854 5.0981139,0.03157 -3.2198616,4.056394 3.2040776,-0.03157 z"
       id="path1049"
       inkscape:connector-curvature="0" />
  </g>
  <g
     inkscape:groupmode="layer"
     id="layer55"
     inkscape:label="0"
     style="display:none"
     transform="translate(0,-23)">
    <path
       style="fill:#fffff9;fill-opacity:1;stroke:none"
       d="m 2.4021302,22.900147 -1.7213874,0.91549 -0.7415035,2.020057 0.046875,3.125 0.600928,2.320361 1.9088379,0.726513 1.784363,-0.678686 0.741027,-2.272485 -0.01563,-2.984375 -0.678844,-2.366871 z m 0.03125,1.058593 1.026075,0.377955 0.6458,1.719702 -0.01563,2.904297 -0.551891,1.641943 -1.010609,0.442041 -1.152339,-0.441565 -0.3789062,-1.689295 -0.046875,-3.09375 0.520483,-1.42013 z"
       id="path1052"
       inkscape:connector-curvature="0"
       sodipodi:nodetypes="cccccccccccccccccccccc" />
  </g>
  <g
     inkscape:groupmode="layer"
     id="layer56"
     inkscape:label="1"
     style="display:none"
     transform="translate(0,-23)">
    <path
       style="fill:#fffff9;fill-opacity:1;stroke:none"
       d="m -0.0136952,31.029021 2.0045215,-0.04735 0.015783,-6.12405 -2.0045196,1.183773 -0.047351,-1.073287 2.9988896,-2.020305 0.01578,8.065436 2.020305,-0.04735 v 1.08907 l -5.0191939,-0.01578 z"
       id="path1058"
       inkscape:connector-curvature="0"
       sodipodi:nodetypes="ccccccccccc" />
  </g>
  <g
     inkscape:groupmode="layer"
     id="layer57"
     inkscape:label="2"
     style="display:none"
     transform="translate(0,-23)">
    <path
       style="fill:#fffff9;fill-opacity:1;stroke:none"
       d="m 5.0212842,32.054957 -5.0981139,-0.06313 3.6775869,-5.334868 0.489292,-1.246908 -0.473509,-1.089071 -1.073287,-0.363023 -1.2153396,0.268322 -0.5050762,0.741831 -0.8523163,-0.710264 0.7733981,-0.710264 1.767767,-0.56821 1.862469,0.568211 0.678696,1.720416 -0.505077,1.704632 -2.541164,4.024826 2.967323,-0.01578 z"
       id="path1061"
       inkscape:connector-curvature="0"
       sodipodi:nodetypes="ccccccccccccccccc" />
  </g>
  <g
     inkscape:groupmode="layer"
     id="layer58"
     inkscape:label="3"
     style="display:none"
     transform="translate(0,-23)">
    <path
       style="fill:#fffff9;fill-opacity:1;stroke:none"
       d="m 2.5116862,23.98952 1.136422,0.378808 0.378807,1.152205 -0.394591,1.167989 -1.057504,0.331456 0.03157,0.994369 1.057503,0.34724 0.315673,1.120638 -0.457725,1.152205 -1.152206,0.394591 -1.1048541,-0.378807 -0.2841054,-0.678696 -0.7102635,0.473508 0.17362,0.82075 1.878252,0.74183 2.08344,-0.615561 0.647129,-1.830902 -0.363024,-1.483661 -0.631345,-0.505077 0.647129,-0.568211 0.34724,-1.420527 -0.678697,-1.846685 -1.972953,-0.773398 -1.7362002,0.615562 -0.4735089,0.74183 0.6786961,0.568211 0.52086,-0.599777 z"
       id="path1064"
       inkscape:connector-curvature="0"
       sodipodi:nodetypes="cccccccccccccccccccccccccccc" />
  </g>
  <g
     inkscape:groupmode="layer"
     id="layer59"
     inkscape:label="4"
     style="display:none"
     transform="translate(0,-23)">
    <path
       style="fill:#fffff9;fill-opacity:1;stroke:none"
       d="m 4.9685362,32.03547 0.04464,-9.0625 -1.09375,0.02232 0.06696,3.995535 -3.0580285,-0.04464 1.0714285,-2.946429 H 0.9730005 l -1.0267857,3.080357 0.2678571,0.625 0.78125,0.245536 3.0133933,-0.02232 v 4.040179 z"
       id="path1067"
       inkscape:connector-curvature="0" />
  </g>
  <g
     inkscape:groupmode="layer"
     id="layer60"
     inkscape:label="5"
     style="display:none"
     transform="translate(0,-23)">
    <path
       style="fill:#fffff9;fill-opacity:1;stroke:none"
       d="m 4.9238932,24.022077 -3.8839284,-0.02232 -0.044643,2.611607 1.6964284,-0.04464 1.607143,0.647321 0.714285,2.16518 -0.736606,2.031249 -1.919643,0.669643 -1.6741074,-0.803571 -0.6919642,-0.714286 0.9598214,-0.602679 0.5133928,0.691965 0.8705354,0.379464 1.339286,-0.379464 0.401785,-1.316964 -0.602678,-1.383929 -1.160714,-0.446429 -2.2321429,0.04464 -0.089286,-4.598214 4.9776789,0.06696 z"
       id="path1070"
       inkscape:connector-curvature="0"
       sodipodi:nodetypes="ccccccccccccccccccccc" />
  </g>
  <g
     inkscape:groupmode="layer"
     id="layer61"
     inkscape:label="6"
     style="display:none"
     transform="translate(0,-23)">
    <path
       style="fill:#fffff9;fill-opacity:1;stroke:none"
       d="m 2.4177552,22.962647 -1.4687502,1.375 -0.9316407,2.55664 -0.109375,2.22461 0.7421875,2.304687 1.8613284,0.615234 1.878906,-0.646484 0.599609,-1.798828 -0.679687,-1.910156 -1.751953,-0.648438 -1.5136721,-0.03125 0.7890625,-2.304687 1.1035156,-0.740235 h 0.648438 l 1.088634,0.645583 0.109891,-0.630066 -0.772744,-0.931532 z m -1.4062502,5.035156 1.5156252,0.01563 1.074218,0.458984 0.378907,1.087891 -0.300781,1.058594 -1.230469,0.425781 L 1.3591612,30.491949 0.96463,29.134527 Z"
       id="path1073"
       inkscape:connector-curvature="0"
       sodipodi:nodetypes="ccccccccccccccccccccccccccc" />
  </g>
  <g
     inkscape:groupmode="layer"
     id="layer62"
     inkscape:label="7"
     style="display:none"
     transform="translate(0,-23)">
    <path
       style="fill:#fffff9;fill-opacity:1;stroke:none"
       d="m -0.0136952,22.979368 4.9244934,0.03157 -2.9515392,9.075589 -1.1048544,-0.03157 2.7779196,-8.018086 -3.6775867,-0.03157 z"
       id="path1079"
       inkscape:connector-curvature="0" />
  </g>
  <g
     inkscape:groupmode="layer"
     id="layer63"
     inkscape:label="8"
     style="display:none"
     transform="translate(0,-23)">
    <path
       style="fill:#fffff9;fill-opacity:1;stroke:none"
       d="m 2.4021302,23.011475 -1.8320315,0.552734 -0.6152344,1.988281 0.6621094,2.003907 -0.6621094,1.910156 0.7109375,1.941406 1.8925784,0.646485 1.832031,-0.583985 0.646484,-2.003906 -0.726562,-2.003906 0.726562,-1.925782 -0.757812,-1.878906 z m 0.01563,0.947265 1.134765,0.472657 0.490235,1.02539 -0.663696,1.436717 L 2.5427602,27.05249 1.4377621,26.846996 0.99588,25.599365 1.4216612,24.478272 Z m 0.03125,4.007813 1.135558,0.127369 0.458192,1.403881 -0.363281,1.025391 -1.199219,0.521484 L 1.4548693,30.556397 0.964635,29.529053 1.5181625,28.156739 Z"
       id="path1082"
       inkscape:connector-curvature="0"
       sodipodi:nodetypes="ccccccccccccccccccccccccccccccc" />
  </g>
  <g
     inkscape:groupmode="layer"
     id="layer64"
     inkscape:label="9"
     style="display:none"
     transform="translate(0,-23)">
    <path
       style="fill:#fffff9;fill-opacity:1;stroke:none"
       d="m 2.4802552,22.884522 -1.7363284,0.726562 -0.7578125,1.845703 0.6796875,1.832031 1.6562504,0.757813 1.625,-0.853516 0.04883,2.367188 -0.347656,1.027344 -1.183594,0.410156 -1.230469,-0.189453 -0.4589844,-0.789063 -0.6308594,0.347657 0.5527344,1.072265 1.7363284,0.679688 1.861328,-0.726563 0.742187,-1.832031 0.01563,-4.023438 -0.742187,-1.878906 z m 0.03125,0.978515 1.041015,0.50586 0.47461,1.183593 -0.205078,0.66211 -1.5,0.695312 L 1.3904112,26.468506 0.99588,25.472412 1.4548643,24.195068 Z"
       id="path1091"
       inkscape:connector-curvature="0" />
  </g>
  <g
     inkscape:groupmode="layer"
     id="layer65"
     inkscape:label="-"
     style="display:none"
     transform="translate(0,-23)">
    <path
       style="fill:#fffff9;fill-opacity:1;stroke:none"
       d="m 0.0099802,27.012086 -0.015784,0.986477 3.006783,-0.0079 -0.02368,-0.994369 z"
       id="path1097"
       inkscape:connector-curvature="0" />
  </g>
  <g
     inkscape:groupmode="layer"
     id="layer66"
     inkscape:label="_"
     style="display:none"
     transform="translate(0,-23)">
    <path
       style="fill:#fffff9;fill-opacity:1;stroke:none"
       d="m 0.0020884,30.997454 -0.00395,0.994369 5.0113038,0.0079 -0.0079,-1.002261 z"
       id="path1100"
       inkscape:connector-curvature="0" />
  </g>
  <g
     inkscape:groupmode="layer"
     id="layer67"
     inkscape:label="."
     style="display:none"
     transform="translate(0,-23)">
    <path
       style="fill:#fffff9;fill-opacity:1;stroke:none"
       d="m 0.3033577,30.997524 -0.3125,0.569196 0.5022321,0.479911 0.4799107,-0.279018 -0.1339285,-0.580357 z"
       id="path1103"
       inkscape:connector-curvature="0"
       sodipodi:nodetypes="cccccc" />
  </g>
  <g
     inkscape:groupmode="layer"
     id="layer68"
     inkscape:label=":"
     style="display:none"
     transform="translate(0,-23)">
    <path
       style="fill:#fffff9;fill-opacity:1;stroke:none"
       d="M 0.0020184,30.422747 0.3480005,30.975202 1.0009023,30.735247 0.9897416,30.199533 0.4372862,30.00422 Z"
       id="path1106"
       inkscape:connector-curvature="0" />
    <path
       style="fill:#fffff9;fill-opacity:1;stroke:none"
       d="m 0.6158577,27.001988 -0.625,0.184152 v 0.541295 l 0.625,0.256696 0.3794643,-0.479911 z"
       id="path1108"
       inkscape:connector-curvature="0" />
  </g>
  <g
     inkscape:groupmode="layer"
     id="layer69"
     inkscape:label=","
     style="display:none"
     transform="translate(0,-23)">
    <path
       style="fill:#fffff9;fill-opacity:1;stroke:none"
       d="m -0.1478561,31.226316 0.9943689,-0.284105 0.7023717,-1.049612 0.7891817,0.370916 -0.7497226,1.223231 -1.5704715,0.615562 z"
       id="path1111"
       inkscape:connector-curvature="0"
       sodipodi:nodetypes="ccccccc" />
  </g>
  <g
     inkscape:groupmode="layer"
     id="layer70"
     inkscape:label=";"
     style="display:none"
     transform="translate(0,-23)">
    <path
       style="fill:#fffff9;fill-opacity:1;stroke:none"
       d="M -0.0452625,31.202641 0.9175392,30.965887 1.6593699,29.971518 2.4959022,30.760699 1.4226154,31.613015 0.3177611,32.02339 Z"
       id="path1114"
       inkscape:connector-curvature="0" />
    <path
       style="fill:#fffff9;fill-opacity:1;stroke:none"
       d="m 0.995322,27.353551 0.251116,0.625 0.6417411,-0.01116 0.1227681,-0.569197 -0.496652,-0.407366 z"
       id="path1116"
       inkscape:connector-curvature="0" />
  </g>
  <g
     inkscape:groupmode="layer"
     id="layer71"
     inkscape:label="/"
     style="display:none"
     transform="translate(0,-23)">
    <path
       style="fill:#fffff9;fill-opacity:1;stroke:none"
       d="m -0.2188824,31.960256 1.1679888,-0.01578 3.4250488,-7.923384 h -1.073287 z"
       id="path1119"
       inkscape:connector-curvature="0"
       sodipodi:nodetypes="ccccc" />
  </g>
  <g
     inkscape:groupmode="layer"
     id="layer72"
     inkscape:label="]"
     style="display:none"
     transform="translate(0,-23)">
    <path
       style="fill:#fffff9;fill-opacity:1;stroke:none"
       d="m -0.0136952,31.013237 1.9887378,-0.04735 v -6.960583 l -1.9887378,0.03157 v -1.073287 h 2.9988904 l -0.03157,9.059806 H 0.0178721 Z"
       id="path1122"
       inkscape:connector-curvature="0" />
  </g>
  <g
     inkscape:groupmode="layer"
     id="layer73"
     inkscape:label="["
     style="display:none"
     transform="translate(0,-23)">
    <path
       style="fill:#fffff9;fill-opacity:1;stroke:none"
       d="m 2.9851952,30.98167 -1.941387,-0.04735 -0.047351,-6.897448 h 1.941387 l 0.0947,-1.104854 -3.1251597,0.03157 0.031567,9.012455 3.0935927,0.06314 z"
       id="path1125"
       inkscape:connector-curvature="0" />
  </g>
  <g
     inkscape:groupmode="layer"
     id="layer74"
     inkscape:label="("
     style="display:none"
     transform="translate(0,-23)">
    <path
       style="fill:#fffff9;fill-opacity:1;stroke:none"
       d="M 3.0325462,31.218425 1.9434753,30.46081 1.012241,28.882447 0.9017555,26.262364 l 0.820749,-1.594147 1.4678777,-1.089071 -0.378807,-0.441942 -1.4836616,0.710264 -1.2784743,1.846685 -0.047351,3.409265 1.3889598,2.004521 1.4520941,0.931234 z"
       id="path1128"
       inkscape:connector-curvature="0"
       sodipodi:nodetypes="ccccccccccccc" />
  </g>
  <g
     inkscape:groupmode="layer"
     id="layer75"
     inkscape:label=")"
     style="display:none"
     transform="translate(0,-23)">
    <path
       style="display:inline;fill:#fffff9;fill-opacity:1;stroke:none"
       d="m 0.0724039,31.000528 1.0890713,-0.757615 0.931234,-1.578363 0.110486,-2.620083 -0.8207492,-1.594147 -1.4678781,-1.089071 0.378807,-0.441942 1.483662,0.710264 1.2784743,1.846685 0.04735,3.409265 -1.3889598,2.004521 -1.4520945,0.931234 z"
       id="path1128-4"
       inkscape:connector-curvature="0"
       sodipodi:nodetypes="ccccccccccccc" />
  </g>
  <g
     inkscape:groupmode="layer"
     id="layer76"
     inkscape:label="&gt;"
     style="display:inline"
     transform="translate(0,-23)">
    <path
       style="fill:#fffff9;fill-opacity:1;stroke:none"
       d="M 4.0310362,28.519845 1.0176434,32.02431 0.0131791,32.03547 3.0377322,28.508684 0.0243398,25.037701 0.9841612,25.026541 Z"
       id="path1147"
       inkscape:connector-curvature="0"
       sodipodi:nodetypes="ccccccc" />
  </g>
  <g
     inkscape:groupmode="layer"
     id="layer77"
     inkscape:label="&lt;"
     style="display:inline"
     transform="translate(0,-23)">
    <path
       style="fill:#fffff9;fill-opacity:1;stroke:none"
       d="m -0.0091423,28.531006 3.0133925,-3.549107 0.970982,0.01116 -2.991071,3.515625 3.002232,3.459821 -1.004464,0.03348 z"
       id="path1150"
       inkscape:connector-curvature="0" />
  </g>
  <g
     inkscape:groupmode="layer"
     id="layer78"
     inkscape:label="{"
     style="display:none"
     transform="translate(0,-23)">
    <path
       style="fill:#fffff9;fill-opacity:1;stroke:none"
       d="m 0.0131791,27.526542 0.9933036,-1.104911 v -2.578125 l 0.9263392,-0.703125 0.9821433,0.357139 0.111609,0.424108 -1.0379467,0.02232 0.044643,2.700893 -1.0267807,0.859375 0.9821428,0.948661 -0.011161,2.522321 1.0491029,0.03348 -0.267857,0.580356 -0.8482102,0.145094 -0.859375,-0.725446 -0.022321,-2.243304 z"
       id="path1153"
       inkscape:connector-curvature="0"
       sodipodi:nodetypes="ccccccccccccccccc" />
  </g>
  <g
     inkscape:groupmode="layer"
     id="layer79"
     inkscape:label="}"
     style="display:none"
     transform="translate(0,-23)">
    <path
       style="display:inline;fill:#fffff9;fill-opacity:1;stroke:none"
       d="m 2.9819302,27.604669 -0.993303,-1.104911 v -2.578125 l -0.92634,-0.703125 -0.982143,0.357139 -0.111609,0.424108 1.037947,0.02232 -0.04464,2.700893 1.026783,0.859375 -0.982143,0.948661 0.01116,2.522321 -1.049105,0.03348 0.267857,0.580356 0.848212,0.145094 0.859375,-0.725446 0.02232,-2.243304 z"
       id="path1153-0"
       inkscape:connector-curvature="0"
       sodipodi:nodetypes="ccccccccccccccccc" />
  </g>
  <g
     inkscape:groupmode="layer"
     id="layer80"
     inkscape:label="!"
     style="display:none"
     transform="translate(0,-23)">
    <path
       style="fill:#fffff9;fill-opacity:1;stroke:none"
       d="m 0.0178721,30.018868 0.9785852,-0.01578 -0.015784,-6.99215 -1.0101525,-0.04735 z"
       id="path1187"
       inkscape:connector-curvature="0" />
    <path
       style="fill:#fffff9;fill-opacity:1;stroke:none"
       d="m 0.0178721,31.013237 0.9785852,-0.06313 -0.015784,1.057503 -1.0101525,-0.04735 z"
       id="path1189"
       inkscape:connector-curvature="0" />
  </g>
  <g
     inkscape:groupmode="layer"
     id="layer3"
     inkscape:label="?"
     style="display:none"
     transform="translate(0,-23)">
    <path
       style="opacity:1;fill:#ffffff;fill-opacity:1;stroke:none;stroke-width:1;stroke-miterlimit:4;stroke-dasharray:none;stroke-opacity:1"
       d="m 0.0178721,31.392045 0.2367545,0.56821 0.7260472,-0.205187 -0.2367546,-0.757614 H 0.3177611 Z"
       id="path2025"
       inkscape:connector-curvature="0" />
    <path
       style="opacity:1;fill:#ffffff;fill-opacity:1;stroke:none;stroke-width:1;stroke-miterlimit:4;stroke-dasharray:none;stroke-opacity:1"
       d="m -0.0294788,29.908383 0.9785853,0.07892 0.047351,-2.130792 0.6786962,0.142055 1.6257145,-0.552427 0.710263,-1.988738 -0.741831,-1.846685 -1.7993337,-0.631345 -1.5310125,0.583994 0.1420527,0.599778 1.5152289,-0.189403 1.0890706,0.473509 0.34724,1.136421 -0.331456,1.120638 -1.0259365,0.299889 -1.7046324,-0.205187 z"
       id="path2027"
       inkscape:connector-curvature="0"
       sodipodi:nodetypes="ccccccccccccccccc" />
  </g>
  <g
     inkscape:groupmode="layer"
     id="layer81"
     inkscape:label="*"
     style="display:none"
     transform="translate(0,-23)">
    <path
       style="opacity:1;fill:#ffffff;fill-opacity:1;stroke:none;stroke-width:1;stroke-miterlimit:4;stroke-dasharray:none;stroke-opacity:1"
       d="m 0.9806738,27.998563 1.0259364,-2.004521 -1.9729545,-0.01578 -0.031567,-0.947018 1.9887378,-0.04735 -1.0417198,-2.004521 1.0575035,0.03157 0.536643,0.978585 0.473509,-0.962801 1.010153,-0.01578 -1.025936,1.941387 1.988737,0.06313 v 0.962801 l -2.004521,0.01578 1.073287,2.004521 -1.073287,0.01578 -0.505076,-1.025936 -0.4892927,1.010152 z"
       id="path2030"
       inkscape:connector-curvature="0" />
  </g>
  <g
     inkscape:groupmode="layer"
     id="layer82"
     inkscape:label="%"
     style="display:none"
     transform="translate(0,-23)">
    <path
       style="opacity:1;fill:#ffffff;fill-opacity:1;stroke:none;stroke-width:1;stroke-miterlimit:4;stroke-dasharray:none;stroke-opacity:1"
       d="m -0.0136952,29.971518 3.0778084,-3.99326 0.915451,0.01578 -2.9673232,3.993259 z"
       id="path2033"
       inkscape:connector-curvature="0" />
    <path
       style="opacity:1;fill:#ffffff;fill-opacity:1;stroke:none;stroke-width:1;stroke-miterlimit:4;stroke-dasharray:none;stroke-opacity:1"
       d="m 3.2693002,29.040283 -0.315672,0.505076 0.552427,0.410375 0.457725,-0.52086 -0.17362,-0.473509 z"
       id="path2035"
       inkscape:connector-curvature="0" />
    <path
       style="opacity:1;fill:#ffffff;fill-opacity:1;stroke:none;stroke-width:1;stroke-miterlimit:4;stroke-dasharray:none;stroke-opacity:1"
       d="m 0.4598138,26.956844 0.5839945,-0.52086 -0.2998891,-0.457726 -0.6629126,0.0947 -0.1420527,0.552427 z"
       id="path2037"
       inkscape:connector-curvature="0" />
  </g>
  <g
     inkscape:groupmode="layer"
     id="layer83"
     inkscape:label="$"
     style="display:none"
     transform="translate(0,-23)">
    <path
       style="opacity:1;fill:#ffffff;fill-opacity:1;stroke:none;stroke-width:1;stroke-miterlimit:4;stroke-dasharray:none;stroke-opacity:1"
       d="m 1.9548643,21.968506 0.044922,1.027344 -1.2285156,0.646484 -0.8691406,1.986328 0.8027343,1.919922 1.2734375,0.378906 v 3.103516 l -0.7148438,-0.333984 -0.6699219,-0.69336 -0.6464844,0.423828 0.7363282,1.072266 1.3164062,0.46875 0.02148,0.982422 0.982422,0.02148 v -0.95898 l 1.294926,-0.513672 0.714844,-1.853516 -0.603516,-2.164062 -1.382812,-0.492188 -0.02344,-2.96875 0.759766,0.113282 0.558594,0.824218 0.625,-0.378906 -0.648438,-1.070312 -1.294922,-0.53711 0.04492,-1.003906 z m 0.1796879,2.009766 -0.134766,2.833984 -0.7363281,-0.177734 -0.4023438,-1.072266 0.46875,-1.205078 z m 0.86914,4.105468 0.804688,0.447266 0.267578,1.027344 -0.335938,1.160156 -0.736328,0.267578 z"
       id="path2040"
       inkscape:connector-curvature="0" />
  </g>
  <g
     inkscape:groupmode="layer"
     id="layer84"
     inkscape:label="+"
     style="display:none"
     transform="translate(0,-23)">
    <path
       style="opacity:1;fill:#ffffff;fill-opacity:1;stroke:none;stroke-width:1;stroke-miterlimit:4;stroke-dasharray:none;stroke-opacity:1"
       d="m -0.0136952,26.988411 2.0203054,0.03157 v -2.067656 l 0.994369,0.04735 v 2.004521 l 1.988737,-0.01578 0.04735,1.025936 -2.036088,-0.03157 -0.01578,1.988738 -1.0101525,0.03157 0.015784,-2.004522 h -2.0045249 z"
       id="path2049"
       inkscape:connector-curvature="0" />
  </g>
  <g
     inkscape:groupmode="layer"
     id="layer85"
     inkscape:label="="
     style="display:none"
     transform="translate(0,-23)">
    <path
       style="opacity:1;fill:#ffffff;fill-opacity:1;stroke:none;stroke-width:1;stroke-miterlimit:4;stroke-dasharray:none;stroke-opacity:1"
       d="m -0.0294788,28.992932 -0.015784,1.010153 4.087961,0.01578 -0.01578,-1.057503 z"
       id="path2052"
       inkscape:connector-curvature="0" />
    <path
       style="opacity:1;fill:#ffffff;fill-opacity:1;stroke:none;stroke-width:1;stroke-miterlimit:4;stroke-dasharray:none;stroke-opacity:1"
       d="m -0.0294788,25.946691 -0.031567,1.089071 h 4.087961 v -1.025936 z"
       id="path2054"
       inkscape:connector-curvature="0" />
  </g>
  <g
     inkscape:groupmode="layer"
     id="layer86"
     inkscape:label="'"
     style="display:inline"
     transform="translate(0,-23)">
    <path
       style="opacity:1;fill:#ffffff;fill-opacity:1;stroke:none;stroke-width:1;stroke-miterlimit:4;stroke-dasharray:none;stroke-opacity:1"
       d="m 0.0020885,22.979368 0.2051872,0.978585 -0.17362,0.994369 0.5682108,0.07892 0.3630236,-1.073287 0.031567,-0.978585 z"
       id="path2057"
       inkscape:connector-curvature="0" />
  </g>
  <g
     inkscape:groupmode="layer"
     id="layer87"
     inkscape:label="@"
     style="display:none"
     transform="translate(0,-23)">
    <path
       style="opacity:1;fill:#ffffff;fill-opacity:1;stroke:none;stroke-width:1;stroke-miterlimit:4;stroke-dasharray:none;stroke-opacity:1"
       d="m 2.5020182,27.314488 -0.47991,0.725446 -0.022322,0.915179 0.479911,0.636161 1.026786,0.357143 1.071428,-0.45759 0.424107,-1.640625 -0.535714,-2.165178 -2.064732,-0.669643 -1.8526788,0.669643 -0.5580357,2.890625 0.5803572,2.790178 1.5625003,0.61384 1.830357,-0.279018 -0.01116,-0.479911 -1.796875,-0.200893 -0.8705356,-0.491071 -0.3236607,-2.03125 0.3459821,-2.276786 1.1049112,-0.256696 1.283482,0.379464 0.3125,1.450893 -0.122768,0.993303 -0.379464,0.14509 -0.558036,-0.290179 v -1.104911 z"
       id="path2060"
       inkscape:connector-curvature="0" />
  </g>
  <g
     inkscape:groupmode="layer"
     id="layer88"
     inkscape:label="#"
     style="display:none"
     transform="translate(0,-23)">
    <path
       style="opacity:1;fill:#ffffff;fill-opacity:1;stroke:none;stroke-width:1;stroke-miterlimit:4;stroke-dasharray:none;stroke-opacity:1"
       d="m 1.0173643,25.89624 v 1.072266 l -1.0605469,0.02148 0.044922,1.039063 0.9941407,-0.02344 v 1.00586 l -1.015625,-0.04492 0.021484,1.048828 h 0.9824221 v 0.994141 l 1.027344,0.0098 -0.023438,-1.015625 h 1.027344 l -0.04492,1.039063 1.048828,-0.0332 -0.02148,-0.982422 1.048828,0.0098 -0.0332,-1.082031 -1.027344,0.02344 0.01172,-0.982422 1.027344,0.0098 -0.03516,-0.992187 -0.992187,-0.0332 0.02148,-1.015625 -1.048828,0.0098 v 1.00586 l -1.0156251,0.02148 0.066406,-1.060547 z m 1.9863279,2.087891 v 1.027344 l -1.003906,-0.02344 v -0.992187 z"
       id="path2063"
       inkscape:connector-curvature="0" />
  </g>
  <g
     inkscape:groupmode="layer"
     id="layer89"
     inkscape:label="^"
     style="display:none"
     transform="translate(0,-23)">
    <path
       style="opacity:1;fill:#ffffff;fill-opacity:1;stroke:none;stroke-width:1;stroke-miterlimit:4;stroke-dasharray:none;stroke-opacity:1"
       d="m 2.5131792,22.984131 -2.5223215,3.002232 h 1.015625 l 1.5513395,-1.808036 1.462053,1.808036 1.004465,-0.01116 z"
       id="path2069"
       inkscape:connector-curvature="0" />
  </g>
  <g
     inkscape:groupmode="layer"
     id="layer90"
     inkscape:label="&quot;"
     style="display:inline"
     transform="translate(0,-23)">
    <path
       style="opacity:1;fill:#ffffff;fill-opacity:1;stroke:none;stroke-width:1;stroke-miterlimit:4;stroke-dasharray:none;stroke-opacity:1"
       d="m 0.4913811,23.026719 -0.5366435,0.69448 0.3314563,1.278474 h 0.473509 l 0.2367545,-1.278474 z"
       id="path2072"
       inkscape:connector-curvature="0" />
    <path
       style="opacity:1;fill:#ffffff;fill-opacity:1;stroke:none;stroke-width:1;stroke-miterlimit:4;stroke-dasharray:none;stroke-opacity:1"
       d="m 2.4959022,23.026719 -0.5366432,0.741831 0.3314562,1.183772 0.426158,0.01578 0.315673,-1.262691 z"
       id="path2074"
       inkscape:connector-curvature="0" />
  </g>
  <g
     inkscape:groupmode="layer"
     id="layer91"
     inkscape:label="|"
     style="display:none"
     transform="translate(0,-23)">
    <path
       style="opacity:1;fill:#ffffff;fill-opacity:1;stroke:none;stroke-width:1;stroke-miterlimit:4;stroke-dasharray:none;stroke-opacity:1"
       d="m -0.0452624,23.910602 1.120638,0.01578 -0.078918,7.134202 -1.0101526,-0.110485 z"
       id="path2077"
       inkscape:connector-curvature="0" />
  </g>
  <g
     inkscape:groupmode="layer"
     id="layer92"
     inkscape:label="\"
     style="display:none"
     transform="translate(0,-23)">
    <path
       style="opacity:1;fill:#ffffff;fill-opacity:1;stroke:none;stroke-width:1;stroke-miterlimit:4;stroke-dasharray:none;stroke-opacity:1"
       d="m -0.098428,23.932792 3.0357142,8.058035 1.160714,0.02232 -3.0580353,-8.080357 z"
       id="path2080"
       inkscape:connector-curvature="0" />
  </g>
  <g
     inkscape:groupmode="layer"
     id="layer93"
     inkscape:label="~"
     style="display:none"
     transform="translate(0,-23)">
    <path
       style="opacity:1;fill:#ffffff;fill-opacity:1;stroke:none;stroke-width:1;stroke-miterlimit:4;stroke-dasharray:none;stroke-opacity:1"
       d="m 0.0243398,28.531006 0.3236608,0.457589 0.8035714,-0.770089 0.3571429,-0.133929 0.2678571,0.178572 0.8258932,1.183035 0.970982,0.569197 0.959821,-0.691964 0.345982,-1.015625 -0.390625,-0.234375 -0.580357,0.848214 -0.401785,0.08929 -0.45759,-0.267858 -0.79241,-1.060267 L 1.5533577,27.035474 0.604697,27.59351 Z"
       id="path2083"
       inkscape:connector-curvature="0" />
  </g>
  <g
     inkscape:groupmode="layer"
     id="layer94"
     inkscape:label="&amp;"
     style="display:inline"
     transform="translate(0,-23)">
    <path
       style="opacity:1;fill:#ffffff;fill-opacity:1;stroke:none;stroke-width:1;stroke-miterlimit:4;stroke-dasharray:none;stroke-opacity:1"
       d="m 2.0857242,22.962647 -1.5625005,0.648437 -0.5371094,2.035156 1.0253907,1.925782 -1.0722657,2.021484 0.5996094,1.908203 1.4843755,0.458985 1.119873,-0.441407 0.418965,-1.022742 0.702511,1.390488 0.919923,0.0022 -1.168527,-2.143973 1.020926,-1.747489 h -1.02539 l -0.63086,0.996094 -1.3906246,-1.484375 1.3730466,-1.089844 0.632813,-1.451172 -0.47461,-1.388672 z m -0.095704,0.742187 0.962891,0.300781 0.285156,0.978516 -0.505859,1.041016 L 1.488346,26.921352 0.6325983,25.64624 1.0447077,24.11499 Z m -0.4570309,4.498047 1.4977679,1.569196 -0.430993,0.90015 -0.54529,0.459225 L 1.0603331,30.87085 0.6814268,29.671631 Z"
       id="path2086"
       inkscape:connector-curvature="0"
       sodipodi:nodetypes="ccccccccccccccccccccccccccccccccccc" />
  </g>
</svg>
